<svg xmlns="http://www.w3.org/2000/svg" xmlns:xlink="http://www.w3.org/1999/xlink" id="Слой_1" x="0" y="0" version="1.1" viewBox="-241 333 128 128" style="enable-background:new -241 333 128 128" xml:space="preserve"><style type="text/css">.st0{fill:#c0e3cf}.st1{fill:#e8e7e7}.st2{fill:#252525}.st3{fill:#70c8b4}</style><g><circle cx="-177" cy="397" r="62" class="st0"/><g><g><path d="M-115,397c0-20.5-10-38.7-25.4-50h-37.8c-3.5,0-6.2,2.8-6.2,6.2v87.5c0,3.5,2.8,6.2,6.2,6.2h37.9 C-125,435.7-115,417.5-115,397z" class="st1"/></g><g><path d="M-178.2,446c-2.9,0-5.2-2.4-5.2-5.2v-87.6c0-2.9,2.4-5.2,5.2-5.2h39.2c-0.9-0.7-1.8-1.4-2.7-2h-36.5 c-4,0-7.2,3.3-7.2,7.2v87.5c0,4,3.3,7.2,7.2,7.2h36.5c0.9-0.6,1.8-1.3,2.7-2h-39.2V446z" class="st2"/></g><g><path d="M-157.2,359.1h-14.9c-1.1,0-2,0.9-2,2V376c0,1.1,0.9,2,2,2h14.9c1.1,0,2-0.9,2-2v-14.9 C-155.1,360-156,359.1-157.2,359.1z" class="st3"/><path d="M-157.2,358.4h-14.9c-1.5,0-2.7,1.2-2.7,2.7V376c0,1.5,1.2,2.7,2.7,2.7h14.9c1.5,0,2.7-1.2,2.7-2.7v-14.9 C-154.5,359.6-155.7,358.4-157.2,358.4z M-155.8,376c0,0.7-0.6,1.4-1.4,1.4h-14.9c-0.7,0-1.4-0.6-1.4-1.4v-14.9 c0-0.7,0.6-1.4,1.4-1.4h14.9c0.7,0,1.4,0.6,1.4,1.4C-155.8,361.1-155.8,376-155.8,376z" class="st2"/></g><g><path d="M-157.2,387.5h-14.9c-1.1,0-2,0.9-2,2v14.9c0,1.1,0.9,2,2,2h14.9c1.1,0,2-0.9,2-2v-14.9 C-155.1,388.4-156,387.5-157.2,387.5z" class="st3"/><path d="M-157.2,386.8h-14.9c-1.5,0-2.7,1.2-2.7,2.7v14.9c0,1.5,1.2,2.7,2.7,2.7h14.9c1.5,0,2.7-1.2,2.7-2.7v-14.9 C-154.5,388.1-155.7,386.8-157.2,386.8z M-155.8,404.5c0,0.7-0.6,1.4-1.4,1.4h-14.9c-0.7,0-1.4-0.6-1.4-1.4v-15 c0-0.7,0.6-1.4,1.4-1.4h14.9c0.7,0,1.4,0.6,1.4,1.4C-155.8,389.5-155.8,404.5-155.8,404.5z" class="st2"/></g><g><path d="M-157.2,414.9h-14.9c-1.7,0-3,1.4-3,3v14.9c0,1.7,1.4,3,3,3h14.9c1.7,0,3-1.4,3-3V418 C-154.1,416.3-155.5,414.9-157.2,414.9z M-156.1,432.9c0,0.6-0.5,1-1,1h-15c-0.6,0-1-0.5-1-1V418c0-0.6,0.5-1,1-1h14.9 c0.6,0,1,0.5,1,1L-156.1,432.9L-156.1,432.9z" class="st2"/></g><g><path d="M-157.2,358.1h-14.9c-1.7,0-3,1.4-3,3V376c0,1.7,1.4,3,3,3h14.9c1.7,0,3-1.4,3-3v-14.9 C-154.1,359.4-155.5,358.1-157.2,358.1z M-156.1,376c0,0.6-0.5,1-1,1h-15c-0.6,0-1-0.5-1-1v-14.9c0-0.6,0.5-1,1-1h14.9 c0.6,0,1,0.5,1,1L-156.1,376L-156.1,376z" class="st2"/></g><g><path d="M-157.2,386.5h-14.9c-1.7,0-3,1.4-3,3v14.9c0,1.7,1.4,3,3,3h14.9c1.7,0,3-1.4,3-3v-14.9 C-154.1,387.9-155.5,386.5-157.2,386.5z M-156.1,404.5c0,0.6-0.5,1-1,1h-15c-0.6,0-1-0.5-1-1v-15c0-0.6,0.5-1,1-1h14.9 c0.6,0,1,0.5,1,1L-156.1,404.5L-156.1,404.5z" class="st2"/></g><g><path d="M-157.2,414.9h-14.9c-1.7,0-3,1.4-3,3v14.9c0,1.7,1.4,3,3,3h14.9c1.7,0,3-1.4,3-3V418 C-154.1,416.3-155.5,414.9-157.2,414.9z M-156.1,432.9c0,0.6-0.5,1-1,1h-15c-0.6,0-1-0.5-1-1V418c0-0.6,0.5-1,1-1h14.9 c0.6,0,1,0.5,1,1L-156.1,432.9L-156.1,432.9z" class="st2"/></g><g><path d="M-144.6,368.6c0,0.7,0.6,1.3,1.3,1.3h22c-0.4-0.9-0.9-1.8-1.4-2.7h-20.5C-144,367.2-144.6,367.8-144.6,368.6 z" class="st2"/></g><g><path d="M-120.3,395.7h-22.9c-0.7,0-1.3,0.6-1.3,1.3s0.6,1.3,1.3,1.3h22.9c0.7,0,1.3-0.6,1.3-1.3 S-119.6,395.7-120.3,395.7z" class="st2"/></g><g><path d="M-143.5,424.1c-0.7,0-1.3,0.6-1.3,1.3c0,0.7,0.6,1.3,1.3,1.3h20.9c0.5-0.9,0.9-1.8,1.4-2.7h-22.3V424.1z" class="st2"/></g></g></g></svg>